<svg xmlns="http://www.w3.org/2000/svg" xmlns:xlink="http://www.w3.org/1999/xlink"><symbol id="sparkles" viewBox="0 0 512.001 512.001"><path d="M285.878 296.821l-85.664-21.416a8.492 8.492 0 0 1-6.384-7.122l-7.278-53.384c-.56-4.105-4.356-6.977-8.444-6.418a7.5 7.5 0 0 0-6.419 8.444l7.279 53.385c1.308 9.588 8.22 17.3 17.608 19.647l56.56 14.14-56.599 14.149c-9.365 2.341-16.262 10.05-17.569 19.64l-15.15 111.104-15.15-111.1c-1.308-9.59-8.205-17.299-17.571-19.641l-56.601-14.148 56.604-14.152c9.363-2.342 16.259-10.051 17.566-19.639l15.15-111.107 3.499 25.662a7.5 7.5 0 1 0 14.863-2.028l-10.931-80.156a7.501 7.501 0 0 0-14.864 0l-22.582 165.602c-.474 3.477-2.964 6.27-6.343 7.114L41.75 296.826a7.5 7.5 0 0 0 0 14.552l85.707 21.424c3.38.845 5.871 3.638 6.345 7.115l22.581 165.597a7.5 7.5 0 0 0 14.864 0l22.582-165.6c.474-3.478 2.964-6.27 6.344-7.114l85.703-21.426a7.5 7.5 0 0 0 .002-14.553zM406.049 128.466L348.94 114.76c-1.233-.296-2.167-1.232-2.322-2.328L331.564 6.445a7.502 7.502 0 0 0-14.852 0l-9.109 64.13a7.501 7.501 0 0 0 6.371 8.48c4.088.581 7.897-2.27 8.48-6.371l1.684-11.853 7.628 53.709c1.03 7.247 6.397 13.058 13.674 14.804l26.721 6.413-26.747 6.419c-7.262 1.743-12.618 7.552-13.646 14.8l-7.629 53.709-7.629-53.708c-1.03-7.248-6.387-13.058-13.648-14.8l-26.748-6.419 26.752-6.421c7.258-1.743 12.614-7.551 13.645-14.799l1.391-9.792a7.5 7.5 0 0 0-6.371-8.48c-4.09-.58-7.897 2.27-8.48 6.371l-1.391 9.792c-.158 1.115-1.059 2.027-2.295 2.323l-57.139 13.715a7.501 7.501 0 0 0 0 14.586l57.138 13.711c1.236.297 2.138 1.209 2.296 2.324l15.055 105.981a7.5 7.5 0 0 0 14.852 0l15.055-105.984c.154-1.113 1.055-2.024 2.291-2.321l57.136-13.712a7.501 7.501 0 0 0 0-14.586zM470.206 393.004l-45.688-11.137c-.4-.098-.7-.384-.746-.712l-12.043-86.113a7.501 7.501 0 0 0-14.856 0l-12.044 86.112c-.047.335-.331.612-.725.709l-45.712 11.143a7.501 7.501 0 0 0 0 14.574l45.712 11.141c.394.096.678.374.725.708.573 4.103 4.381 6.955 8.467 6.389a7.5 7.5 0 0 0 6.389-8.467c-.904-6.462-5.627-11.645-12.03-13.204l-15.815-3.854 15.817-3.855c6.402-1.56 11.124-6.742 12.028-13.203l4.616-33.004 4.615 33.004c.904 6.46 5.635 11.645 12.05 13.208l15.793 3.85-15.814 3.854c-6.403 1.561-11.124 6.743-12.028 13.204l-4.615 33.004-.421-3.007c-.574-4.102-4.362-6.957-8.467-6.389a7.5 7.5 0 0 0-6.389 8.467l7.849 56.114a7.501 7.501 0 0 0 14.856 0l12.043-86.111c.047-.335.332-.613.725-.709l45.71-11.141a7.501 7.501 0 0 0-.002-14.575z" fill="currentColor"/></symbol></svg>