<?xml version="1.0" encoding="utf-8"?>
<!-- Generator: Adobe Illustrator 23.0.3, SVG Export Plug-In . SVG Version: 6.00 Build 0)  -->
<svg version="1.1" id="Слой_1" xmlns="http://www.w3.org/2000/svg" xmlns:xlink="http://www.w3.org/1999/xlink" x="0px" y="0px"
	 viewBox="0 0 447.56 542.63" style="enable-background:new 0 0 447.56 542.63;" xml:space="preserve">
<style type="text/css">
	.st0{fill:url(#SVGID_1_);}
	.st1{fill:url(#SVGID_2_);}
	.st2{fill:url(#SVGID_3_);}
	.st3{fill:url(#SVGID_4_);}
	.st4{fill:#292DA1;}
</style>
<linearGradient id="SVGID_1_" gradientUnits="userSpaceOnUse" x1="219.9884" y1="275.1076" x2="219.9884" y2="-16.4687">
	<stop  offset="5.327789e-07" style="stop-color:#292DA1"/>
	<stop  offset="1" style="stop-color:#E591FF"/>
</linearGradient>
<polygon class="st0" points="268.37,209.24 219.99,257.62 171.6,209.24 219.99,160.85 "/>
<linearGradient id="SVGID_2_" gradientUnits="userSpaceOnUse" x1="273.6054" y1="275.1076" x2="273.6054" y2="-16.4687">
	<stop  offset="5.327789e-07" style="stop-color:#292DA1"/>
	<stop  offset="1" style="stop-color:#E591FF"/>
</linearGradient>
<polygon class="st1" points="321.99,155.62 273.61,204 225.22,155.62 273.61,107.23 "/>
<linearGradient id="SVGID_3_" gradientUnits="userSpaceOnUse" x1="219.9884" y1="275.1076" x2="219.9884" y2="-16.4687">
	<stop  offset="5.327789e-07" style="stop-color:#292DA1"/>
	<stop  offset="1" style="stop-color:#E591FF"/>
</linearGradient>
<polygon class="st2" points="268.37,102 219.99,150.39 171.6,102 219.99,53.62 "/>
<linearGradient id="SVGID_4_" gradientUnits="userSpaceOnUse" x1="273.6054" y1="275.1076" x2="273.6054" y2="-16.4687">
	<stop  offset="5.327789e-07" style="stop-color:#292DA1"/>
	<stop  offset="1" style="stop-color:#E591FF"/>
</linearGradient>
<polygon class="st3" points="321.99,48.38 273.61,96.77 225.22,48.38 273.61,0 "/>
<rect x="303.3" y="398.38" class="st4" width="68.43" height="68.43"/>
<rect x="379.13" y="398.38" class="st4" width="68.43" height="68.43"/>
<rect x="303.3" y="322.56" class="st4" width="68.43" height="68.43"/>
<rect x="75.83" y="398.38" class="st4" width="68.43" height="68.43"/>
<rect x="151.65" y="398.38" class="st4" width="68.43" height="68.43"/>
<rect x="227.48" y="474.21" class="st4" width="68.43" height="68.43"/>
<rect x="303.3" y="474.21" class="st4" width="68.43" height="68.43"/>
<rect x="75.83" y="474.21" class="st4" width="68.43" height="68.43"/>
<rect x="151.65" y="474.21" class="st4" width="68.43" height="68.43"/>
<rect y="322.56" class="st4" width="68.43" height="68.43"/>
<rect x="75.83" y="322.56" class="st4" width="68.43" height="68.43"/>
</svg>
