<?xml version="1.0" encoding="utf-8"?>
<svg version="1.1" xmlns="http://www.w3.org/2000/svg" xmlns:xlink="http://www.w3.org/1999/xlink" x="0px" y="0px"
	 viewBox="0 0 472.9 472.9" style="enable-background:new 0 0 472.9 472.9;" xml:space="preserve">
<style type="text/css">
	.st0{fill:url(#SVGID_1_);}
	.st1{fill:#090942;}
</style>
<g>

		<linearGradient id="SVGID_1_" gradientUnits="userSpaceOnUse" x1="-232.6373" y1="-350.2076" x2="-232.6373" y2="120.7666" gradientTransform="matrix(0.9083 0.4183 -0.4183 0.9083 399.0396 439.4882)">
		<stop  offset="0" style="stop-color:#970A9D"/>
		<stop  offset="1" style="stop-color:#2E2889"/>
	</linearGradient>
	<path class="st0" d="M335.3,21.7C216.9-32.9,76.2,19.1,21.7,137.5s-2.6,259.1,115.9,313.7s259.1,2.6,313.7-115.9
		S453.7,76.2,335.3,21.7z M170.9,378.8c-78.5-36.2-113-129.4-76.8-207.9S223.5,57.9,302,94.1S415,223.5,378.8,302
		S249.4,415,170.9,378.8z"/>
	<g>
		<path class="st1" d="M57.5,390.5c16.2,19,51.7,21.3,98.6,3c70.1-28.4,118.4-60.9,134.6-96c15.3-33.2-1.6-56.5-63.1-39.7
			C65.8,301.9,162.1,99.2,349.7,48.2c55.8-15.2,83.6-15.9,96.8-2.9C436,57,425.3,69,414.5,81.5c-10.8-7.1-37-12.9-84.6,5.6
			c-72.1,28.6-110,62.2-121.2,86.4c-15.5,33.8,6.2,43.7,70.4,33.7c150.8-23.5,30.8,180.2-145.1,225.9
			c-51.4,13.4-85.2,15.7-106.4-8.3C37.4,413.9,47.4,402.4,57.5,390.5z"/>
	</g>
</g>
</svg>
