<?xml version="1.0" encoding="iso-8859-1"?>
<!-- Generator: Adobe Illustrator 19.0.0, SVG Export Plug-In . SVG Version: 6.00 Build 0)  -->
<svg xmlns="http://www.w3.org/2000/svg" xmlns:xlink="http://www.w3.org/1999/xlink" version="1.1" id="Capa_1" x="0px" y="0px" viewBox="0 0 512.001 512.001" style="enable-background:new 0 0 512.001 512.001;" xml:space="preserve" width="512px" height="512px">
<g>
	<g>
		<path d="M285.878,296.821l-85.664-21.416c-3.403-0.851-5.909-3.646-6.384-7.122l-7.278-53.384    c-0.56-4.105-4.356-6.977-8.444-6.418c-4.104,0.56-6.979,4.34-6.419,8.444l7.279,53.385c1.308,9.588,8.22,17.3,17.608,19.647    l56.56,14.14l-56.599,14.149c-9.365,2.341-16.262,10.05-17.569,19.64l-15.15,111.104l-15.15-111.1    c-1.308-9.59-8.205-17.299-17.571-19.641l-56.601-14.148l56.604-14.152c9.363-2.342,16.259-10.051,17.566-19.639l15.15-111.107    l3.499,25.662c0.561,4.104,4.349,6.979,8.445,6.417c4.104-0.56,6.978-4.34,6.418-8.445l-10.931-80.156    c-0.507-3.716-3.681-6.487-7.432-6.487c-3.75,0-6.925,2.771-7.432,6.487l-22.582,165.602c-0.474,3.477-2.964,6.27-6.343,7.114    L41.75,296.826c-3.339,0.835-5.681,3.835-5.681,7.276c0,3.441,2.342,6.441,5.681,7.276l85.707,21.424    c3.38,0.845,5.871,3.638,6.345,7.115l22.581,165.597c0.507,3.716,3.681,6.486,7.432,6.486c3.751,0,6.925-2.771,7.432-6.486    l22.582-165.6c0.474-3.478,2.964-6.27,6.344-7.114l85.703-21.426c3.339-0.835,5.681-3.835,5.681-7.276    C291.557,300.657,289.217,297.656,285.878,296.821z" fill="currentColor"/>
	</g>
</g>
<g>
	<g>
		<path d="M406.049,128.466L348.94,114.76c-1.233-0.296-2.167-1.232-2.322-2.328L331.564,6.445C331.038,2.748,327.872,0,324.138,0    s-6.9,2.748-7.426,6.445l-9.109,64.13c-0.582,4.101,2.271,7.897,6.371,8.48c4.088,0.581,7.897-2.27,8.48-6.371l1.684-11.853    l7.628,53.709c1.03,7.247,6.397,13.058,13.674,14.804l26.721,6.413l-26.747,6.419c-7.262,1.743-12.618,7.552-13.646,14.8    l-7.629,53.709l-7.629-53.708c-1.03-7.248-6.387-13.058-13.648-14.8l-26.748-6.419l26.752-6.421    c7.258-1.743,12.614-7.551,13.645-14.799l1.391-9.792c0.582-4.101-2.271-7.898-6.371-8.48c-4.09-0.58-7.897,2.27-8.48,6.371    l-1.391,9.792c-0.158,1.115-1.059,2.027-2.295,2.323l-57.139,13.715c-3.372,0.81-5.75,3.825-5.75,7.293    c0,3.468,2.378,6.483,5.75,7.293l57.138,13.711c1.236,0.297,2.138,1.209,2.296,2.324l15.055,105.981    c0.525,3.697,3.691,6.445,7.426,6.445s6.9-2.748,7.426-6.445l15.055-105.984c0.154-1.113,1.055-2.024,2.291-2.321l57.136-13.712    c3.372-0.81,5.75-3.825,5.75-7.293C411.799,132.291,409.421,129.276,406.049,128.466z" fill="currentColor"/>
	</g>
</g>
<g>
	<g>
		<path d="M470.206,393.004l-45.688-11.137c-0.4-0.098-0.7-0.384-0.746-0.712l-12.043-86.113c-0.519-3.704-3.687-6.461-7.428-6.461    c-3.74,0-6.909,2.757-7.428,6.461l-12.044,86.112c-0.047,0.335-0.331,0.612-0.725,0.709l-45.712,11.143    c-3.359,0.819-5.724,3.829-5.724,7.287c0,3.458,2.364,6.468,5.724,7.287l45.712,11.141c0.394,0.096,0.678,0.374,0.725,0.708    c0.573,4.103,4.381,6.955,8.467,6.389c4.103-0.574,6.963-4.365,6.389-8.467c-0.904-6.462-5.627-11.645-12.03-13.204l-15.815-3.854    l15.817-3.855c6.402-1.56,11.124-6.742,12.028-13.203l4.616-33.004l4.615,33.004c0.904,6.46,5.635,11.645,12.05,13.208    l15.793,3.85l-15.814,3.854c-6.403,1.561-11.124,6.743-12.028,13.204l-4.615,33.004l-0.421-3.007    c-0.574-4.102-4.362-6.957-8.467-6.389c-4.103,0.574-6.963,4.364-6.389,8.467l7.849,56.114c0.519,3.704,3.688,6.461,7.428,6.461    c3.741,0,6.909-2.757,7.428-6.461l12.043-86.111c0.047-0.335,0.332-0.613,0.725-0.709l45.71-11.141    c3.359-0.819,5.724-3.829,5.724-7.287C475.932,396.834,473.565,393.823,470.206,393.004z" fill="currentColor"/>
	</g>
</g>
</svg>
